nColumns=28
nRows=53
DataType=double
version=3
OpenSimVersion=4.1
endheader
time	ground_force_1_vx	ground_force_1_vy	ground_force_1_vz	ground_force_1_px	ground_force_1_py	ground_force_1_pz	ground_force_1_mx	ground_force_1_my	ground_force_1_mz	ground_force_2_vx	ground_force_2_vy	ground_force_2_vz	ground_force_2_px	ground_force_2_py	ground_force_2_pz	ground_force_2_mx	ground_force_2_my	ground_force_2_mz	ground_force_3_vx	ground_force_3_vy	ground_force_3_vz	ground_force_3_px	ground_force_3_py	ground_force_3_pz	ground_force_3_mx	ground_force_3_my	ground_force_3_mz
3.36	-0.836761	310.213	-41.3698	-0.262256	0.006	-0.411765	0	-0.94694	0	-5.13547	292.573	39.5675	-0.242853	0.006	-0.785407	0	1.28482	0	0	0	0	0	0	0	0	0	0
3.37	-0.860909	311.236	-41.5693	-0.261643	0.006	-0.411481	0	-0.982704	0	-5.26819	294.676	40.0492	-0.242574	0.006	-0.78562	0	1.34087	0	0	0	0	0	0	0	0	0	0
3.38	-0.797682	311.926	-41.7837	-0.2612	0.006	-0.411217	0	-1.0212	0	-5.28882	296.648	40.5155	-0.242556	0.006	-0.785816	0	1.40308	0	0	0	0	0	0	0	0	0	0
3.39	-0.62044	312.327	-41.9959	-0.260949	0.006	-0.410983	0	-1.06118	0	-5.18315	298.499	40.9484	-0.242807	0.006	-0.785987	0	1.46996	0	0	0	0	0	0	0	0	0	0
3.4	-0.311981	312.489	-42.1874	-0.260907	0.006	-0.410793	0	-1.10124	0	-4.94768	300.243	41.3331	-0.243324	0.006	-0.786128	0	1.53979	0	0	0	0	0	0	0	0	0	0
3.41	0.135025	312.474	-42.341	-0.261083	0.006	-0.410655	0	-1.14	0	-4.58967	301.888	41.6576	-0.244096	0.006	-0.786235	0	1.61063	0	0	0	0	0	0	0	0	0	0
3.42	0.718598	312.343	-42.4425	-0.261473	0.006	-0.410579	0	-1.17609	0	-4.12201	303.427	41.9134	-0.245098	0.006	-0.786306	0	1.68045	0	0	0	0	0	0	0	0	0	0
3.43	1.42749	312.152	-42.4801	-0.262063	0.006	-0.410569	0	-1.2082	0	-3.56049	304.843	42.0952	-0.246297	0.006	-0.786338	0	1.74723	0	0	0	0	0	0	0	0	0	0
3.44	2.23825	311.935	-42.4433	-0.262828	0.006	-0.410629	0	-1.23509	0	-2.92397	306.119	42.2012	-0.247651	0.006	-0.78633	0	1.809	0	0	0	0	0	0	0	0	0	0
3.45	3.11342	311.705	-42.3205	-0.263725	0.006	-0.410758	0	-1.25565	0	-2.23608	307.252	42.2329	-0.249112	0.006	-0.786284	0	1.86388	0	0	0	0	0	0	0	0	0	0
3.46	4.00389	311.458	-42.1007	-0.264707	0.006	-0.410951	0	-1.26907	0	-1.52644	308.254	42.1947	-0.250625	0.006	-0.786202	0	1.91016	0	0	0	0	0	0	0	0	0	0
3.47	4.85586	311.181	-41.7776	-0.26572	0.006	-0.4112	0	-1.27485	0	-0.827548	309.149	42.0942	-0.252133	0.006	-0.786087	0	1.94644	0	0	0	0	0	0	0	0	0	0
3.48	5.62073	310.864	-41.3537	-0.266711	0.006	-0.411496	0	-1.27296	0	-0.170104	309.967	41.9427	-0.253583	0.006	-0.785945	0	1.9718	0	0	0	0	0	0	0	0	0	0
3.49	6.26179	310.505	-40.8409	-0.267635	0.006	-0.411825	0	-1.26372	0	0.41789	310.742	41.7539	-0.254925	0.006	-0.785785	0	1.98606	0	0	0	0	0	0	0	0	0	0
3.5	6.75378	310.111	-40.2583	-0.268451	0.006	-0.412172	0	-1.24764	0	0.910004	311.501	41.5415	-0.256116	0.006	-0.785614	0	1.98976	0	0	0	0	0	0	0	0	0	0
3.51	7.08181	309.691	-39.6302	-0.269128	0.006	-0.41252	0	-1.22542	0	1.28194	312.255	41.3177	-0.257123	0.006	-0.785441	0	1.98398	0	0	0	0	0	0	0	0	0	0
3.52	7.24355	309.261	-38.9841	-0.269647	0.006	-0.412853	0	-1.19807	0	1.51402	313.011	41.0933	-0.257922	0.006	-0.785273	0	1.97021	0	0	0	0	0	0	0	0	0	0
3.53	7.25072	308.84	-38.3471	-0.270003	0.006	-0.413156	0	-1.16694	0	1.59376	313.77	40.8787	-0.258498	0.006	-0.78512	0	1.95038	0	0	0	0	0	0	0	0	0	0
3.54	7.1285	308.452	-37.7434	-0.270203	0.006	-0.413418	0	-1.13367	0	1.51825	314.534	40.6846	-0.258846	0.006	-0.784987	0	1.92674	0	0	0	0	0	0	0	0	0	0
3.55	6.91235	308.13	-37.1933	-0.270265	0.006	-0.413631	0	-1.10008	0	1.29717	315.305	40.5218	-0.258973	0.006	-0.784882	0	1.90172	0	0	0	0	0	0	0	0	0	0
3.56	6.64054	307.907	-36.7122	-0.270213	0.006	-0.413789	0	-1.06815	0	0.953318	316.081	40.3992	-0.258898	0.006	-0.784809	0	1.87782	0	0	0	0	0	0	0	0	0	0
3.57	6.3449	307.819	-36.3093	-0.270072	0.006	-0.413891	0	-1.03981	0	0.519611	316.85	40.3223	-0.258648	0.006	-0.784767	0	1.85744	0	0	0	0	0	0	0	0	0	0
3.58	6.04845	307.894	-35.9885	-0.269866	0.006	-0.413939	0	-1.0168	0	0.0347165	317.588	40.2929	-0.258264	0.006	-0.784755	0	1.84264	0	0	0	0	0	0	0	0	0	0
3.59	5.76867	308.157	-35.7505	-0.269619	0.006	-0.413936	0	-1.00067	0	-0.459919	318.264	40.308	-0.257793	0.006	-0.784766	0	1.83491	0	0	0	0	0	0	0	0	0	0
3.6	5.51745	308.624	-35.5956	-0.269351	0.006	-0.413888	0	-0.992663	0	-0.921181	318.849	40.3613	-0.257287	0.006	-0.784794	0	1.83527	0	0	0	0	0	0	0	0	0	0
3.61	5.29985	309.302	-35.5243	-0.269082	0.006	-0.4138	0	-0.993512	0	-1.30814	319.331	40.4444	-0.256795	0.006	-0.784829	0	1.84431	0	0	0	0	0	0	0	0	0	0
3.62	5.11472	310.189	-35.5367	-0.268822	0.006	-0.413679	0	-1.00341	0	-1.58904	319.721	40.5465	-0.256356	0.006	-0.784865	0	1.86223	0	0	0	0	0	0	0	0	0	0
3.63	4.95546	311.277	-35.6316	-0.268579	0.006	-0.413528	0	-1.02203	0	-1.74839	320.051	40.6554	-0.255995	0.006	-0.784894	0	1.88879	0	0	0	0	0	0	0	0	0	0
3.64	4.81083	312.544	-35.8057	-0.268351	0.006	-0.413351	0	-1.04849	0	-1.78764	320.361	40.7571	-0.255719	0.006	-0.78491	0	1.92325	0	0	0	0	0	0	0	0	0	0
3.65	4.66687	313.962	-36.0542	-0.268135	0.006	-0.413153	0	-1.08143	0	-1.7186	320.685	40.8378	-0.255528	0.006	-0.784909	0	1.9645	0	0	0	0	0	0	0	0	0	0
3.66	4.51006	315.508	-36.3738	-0.267922	0.006	-0.412938	0	-1.11916	0	-1.55803	321.054	40.8851	-0.255411	0.006	-0.784889	0	2.01114	0	0	0	0	0	0	0	0	0	0
3.67	4.33144	317.17	-36.7617	-0.267706	0.006	-0.412709	0	-1.15978	0	-1.32565	321.481	40.8893	-0.255353	0.006	-0.784847	0	2.06146	0	0	0	0	0	0	0	0	0	0
3.68	4.129	318.952	-37.2146	-0.267482	0.006	-0.412468	0	-1.20137	0	-1.04238	321.975	40.8431	-0.25534	0.006	-0.784783	0	2.11368	0	0	0	0	0	0	0	0	0	0
3.69	3.9072	320.871	-37.7295	-0.26725	0.006	-0.412219	0	-1.24192	0	-0.728784	322.532	40.741	-0.255353	0.006	-0.784698	0	2.16609	0	0	0	0	0	0	0	0	0	0
3.7	3.67486	322.951	-38.3032	-0.267012	0.006	-0.411965	0	-1.27937	0	-0.403664	323.144	40.5788	-0.25538	0.006	-0.784594	0	2.21699	0	0	0	0	0	0	0	0	0	0
3.71	3.44193	325.212	-38.9321	-0.266772	0.006	-0.411709	0	-1.31163	0	-0.0811799	323.796	40.3547	-0.255408	0.006	-0.784475	0	2.26487	0	0	0	0	0	0	0	0	0	0
3.72	3.2171	327.666	-39.6101	-0.266533	0.006	-0.411458	0	-1.33677	0	0.230843	324.469	40.0704	-0.255432	0.006	-0.784343	0	2.30855	0	0	0	0	0	0	0	0	0	0
3.73	3.00664	330.314	-40.3279	-0.266299	0.006	-0.411216	0	-1.35331	0	0.529961	325.144	39.7306	-0.255454	0.006	-0.784199	0	2.34718	0	0	0	0	0	0	0	0	0	0
3.74	2.81287	333.139	-41.0716	-0.266071	0.006	-0.410991	0	-1.36017	0	0.816722	325.796	39.342	-0.255477	0.006	-0.784045	0	2.38011	0	0	0	0	0	0	0	0	0	0
3.75	2.63316	336.109	-41.8229	-0.26585	0.006	-0.410789	0	-1.35685	0	1.09089	326.404	38.9115	-0.255507	0.006	-0.783883	0	2.40687	0	0	0	0	0	0	0	0	0	0
3.76	2.46059	339.173	-42.5599	-0.265636	0.006	-0.410617	0	-1.34369	0	1.34881	326.937	38.4449	-0.255549	0.006	-0.783711	0	2.42716	0	0	0	0	0	0	0	0	0	0
3.77	2.28665	342.267	-43.2594	-0.265434	0.006	-0.410484	0	-1.32177	0	1.58453	327.365	37.9465	-0.255607	0.006	-0.78353	0	2.44077	0	0	0	0	0	0	0	0	0	0
3.78	2.10558	345.319	-43.9004	-0.265249	0.006	-0.410396	0	-1.29273	0	1.79241	327.656	37.4198	-0.255683	0.006	-0.783338	0	2.44777	0	0	0	0	0	0	0	0	0	0
3.79	1.91721	348.26	-44.4649	-0.265086	0.006	-0.410356	0	-1.25837	0	1.9679	327.787	36.8693	-0.255777	0.006	-0.783135	0	2.44859	0	0	0	0	0	0	0	0	0	0
3.8	1.72558	351.027	-44.9389	-0.264952	0.006	-0.410367	0	-1.22043	0	2.10747	327.743	36.3025	-0.255887	0.006	-0.782922	0	2.44397	0	0	0	0	0	0	0	0	0	0
3.81	1.53498	353.565	-45.3128	-0.26485	0.006	-0.410427	0	-1.18044	0	2.20769	327.522	35.7305	-0.25601	0.006	-0.782702	0	2.43488	0	0	0	0	0	0	0	0	0	0
3.82	1.34783	355.831	-45.5822	-0.264785	0.006	-0.410533	0	-1.13966	0	2.2646	327.135	35.167	-0.25614	0.006	-0.78248	0	2.42242	0	0	0	0	0	0	0	0	0	0
3.83	1.16527	357.779	-45.7469	-0.264757	0.006	-0.410683	0	-1.09908	0	2.27441	326.596	34.6271	-0.25627	0.006	-0.782262	0	2.40775	0	0	0	0	0	0	0	0	0	0
3.84	0.989145	359.366	-45.8097	-0.264771	0.006	-0.410869	0	-1.05939	0	2.23433	325.923	34.1255	-0.256397	0.006	-0.782054	0	2.39223	0	0	0	0	0	0	0	0	0	0
3.85	0.824478	360.548	-45.7747	-0.26483	0.006	-0.411087	0	-1.02093	0	2.14256	325.131	33.6749	-0.256516	0.006	-0.781864	0	2.37709	0	0	0	0	0	0	0	0	0	0
3.86	0.679665	361.291	-45.647	-0.264939	0.006	-0.411332	0	-0.983725	0	1.99868	324.235	33.2848	-0.256624	0.006	-0.781698	0	2.36332	0	0	0	0	0	0	0	0	0	0
3.87	0.564488	361.578	-45.4336	-0.265103	0.006	-0.411598	0	-0.947728	0	1.80459	323.248	32.9622	-0.256722	0.006	-0.781561	0	2.35161	0	0	0	0	0	0	0	0	0	0
3.88	0.488029	361.411	-45.144	-0.265328	0.006	-0.411881	0	-0.913023	0	1.56469	322.182	32.7102	-0.256811	0.006	-0.781457	0	2.34244	0	0	0	0	0	0	0	0	0	0
